#!OML:ASF H:\Punching\Project 1\Capture day 1\Session 1\female.ASF
:FULLY-SPECIFIED
:DEGREES
1065
root 2.10071 10.6446 1.72453 17.169 -25.9004 3.11117
lowerback 24.0492 -2.2172 -6.62141
upperback -0.207669 -4.56065 1.65682
thorax -13.0887 -1.57016 7.26568
lowerneck -5.41927 9.46947 18.9759
upperneck 7.95665 12.5326 -15.2233
head 5.46658 6.0764 -6.90862
rclavicle -4.1546e-014 4.01545e-014
rhumerus 14.1856 15.8877 -71.5228
rradius 118.15
rwrist -49.1074
rhand -7.32288 -15.6986
rfingers 7.12502
rthumb 18.5603 -44.8332
lclavicle -4.1546e-014 4.01545e-014
lhumerus 36.5805 -28.8514 66.224
lradius 138.874
lwrist 11.696
lhand -27.3666 7.78365
lfingers 7.12502
lthumb -0.774166 37.762
rfemur -63.2991 -40.1213 -6.51265
rtibia 105.137
rfoot -39.0278 12.4654
rtoes -37.0156
lfemur -89.997 24.7173 -25.5653
ltibia 103.6
lfoot -27.0051 9.87265
ltoes -7.25208
1066
root 2.10119 10.5985 1.74189 17.1068 -26.0541 2.99354
lowerback 24.332 -2.54028 -7.00755
upperback -0.230223 -5.11177 1.67446
thorax -13.1471 -1.789 7.71154
lowerneck -5.05198 9.92974 19.3817
upperneck 7.76827 13.209 -15.5306
head 5.51755 6.41957 -7.0037
rclavicle -3.99557e-014 -2.34566e-014
rhumerus 11.2857 16.333 -71.9666
rradius 121.326
rwrist -48.5068
rhand -6.52427 -15.1012
rfingers 7.12502
rthumb 19.3283 -44.1607
lclavicle -3.99557e-014 -2.34566e-014
lhumerus 36.6836 -28.1773 65.9864
lradius 139.167
lwrist 11.7244
lhand -27.4669 7.79344
lfingers 7.12502
lthumb -0.871015 37.7714
rfemur -63.3735 -40.418 -6.65249
rtibia 105.53
rfoot -39.1872 12.9296
rtoes -37.1441
lfemur -90.2055 24.9073 -25.4221
ltibia 104.259
lfoot -27.22 9.96583
ltoes -6.97213
1067
root 2.10078 10.5514 1.75785 17.0355 -26.1056 2.90379
lowerback 24.6135 -2.86255 -7.35464
upperback -0.238749 -5.64986 1.70806
thorax -13.1834 -2.00513 8.14944
lowerneck -4.70538 10.3556 19.7126
upperneck 7.49712 13.8377 -15.8449
head 5.53809 6.73665 -7.09264
rclavicle -7.7526e-015 9.54166e-015
rhumerus 8.43708 16.7129 -72.3894
rradius 124.172
rwrist -47.8113
rhand -5.7678 -14.5025
rfingers 7.12502
rthumb 20.0556 -43.4875
lclavicle -7.7526e-015 9.54166e-015
lhumerus 36.761 -27.4913 65.7878
lradius 139.465
lwrist 11.7839
lhand -27.5358 7.83896
lfingers 7.12502
lthumb -0.937542 37.8166
rfemur -63.3765 -40.7863 -6.84168
rtibia 105.949
rfoot -39.3603 13.3165
rtoes -37.2616
lfemur -90.4406 25.0031 -25.3089
ltibia 104.897
lfoot -27.3998 10.0846
ltoes -6.67267
1068
root 2.09961 10.503 1.77215 16.9598 -26.0627 2.8338
lowerback 24.8872 -3.1802 -7.65922
upperback -0.232957 -6.1672 1.76166
thorax -13.1957 -2.21572 8.57864
lowerneck -4.37618 10.7452 19.9728
upperneck 7.14818 14.4174 -16.1867
head 5.52986 7.02687 -7.18404
rclavicle -5.38706e-014 6.83819e-014
rhumerus 5.70949 17.0785 -72.7935
rradius 126.637
rwrist -47.0321
rhand -4.96407 -13.7927
rfingers 7.12502
rthumb 20.8279 -42.6947
lclavicle -5.38706e-014 6.83819e-014
lhumerus 36.802 -26.7977 65.6287
lradius 139.759
lwrist 11.877
lhand -27.5811 7.8962
lfingers 7.12502
lthumb -0.981322 37.8737
rfemur -63.3221 -41.2204 -7.0688
rtibia 106.399
rfoot -39.5434 13.6277
rtoes -37.3833
lfemur -90.7054 25.0162 -25.2192
ltibia 105.516
lfoot -27.5506 10.2231
ltoes -6.37481
1069
root 2.09782 10.4531 1.78467 16.8782 -25.9391 2.77788
lowerback 25.1576 -3.48284 -7.91655
upperback -0.218213 -6.64901 1.83393
thorax -13.1975 -2.41351 8.99101
lowerneck -4.07048 11.0916 20.1674
upperneck 6.75062 14.9386 -16.5601
head 5.50119 7.28576 -7.2818
rclavicle -1.94809e-014 1.59028e-014
rhumerus 3.14629 17.482 -73.1801
rradius 128.708
rwrist -46.214
rhand -4.11926 -12.9579
rfingers 7.12502
rthumb 21.6394 -41.7687
lclavicle -1.94809e-014 1.59028e-014
lhumerus 36.7952 -26.1183 65.5197
lradius 140.038
lwrist 11.9954
lhand -27.5998 7.92988
lfingers 7.12502
lthumb -0.999365 37.9073
rfemur -63.2165 -41.7065 -7.33088
rtibia 106.881
rfoot -39.7364 13.8652
rtoes -37.5087
lfemur -90.9953 24.9677 -25.1487
ltibia 106.12
lfoot -27.6755 10.3678
ltoes -6.09845
1070
root 2.09534 10.4013 1.79492 16.8013 -25.746 2.72803
lowerback 25.4062 -3.76078 -8.11775
upperback -0.195417 -7.07887 1.91857
thorax -13.1863 -2.5924 9.36689
lowerneck -3.80993 11.387 20.3114
upperneck 6.34466 15.3864 -16.9509
head 5.46452 7.50621 -7.38487
rclavicle 8.50798e-014 -1.59028e-014
rhumerus 0.778944 17.9545 -73.5631
rradius 130.415
rwrist -45.3734
rhand -3.27086 -12.0448
rfingers 7.12502
rthumb 22.454 -40.7596
lclavicle 8.50798e-014 -1.59028e-014
lhumerus 36.7571 -25.4883 65.4534
lradius 140.281
lwrist 12.1177
lhand -27.6007 7.91362
lfingers 7.12502
lthumb -1.00026 37.891
rfemur -63.0803 -42.2245 -7.61431
rtibia 107.398
rfoot -39.9375 14.0251
rtoes -37.6432
lfemur -91.3255 24.8761 -25.0935
ltibia 106.712
lfoot -27.7736 10.5002
ltoes -5.84208
1071
root 2.09215 10.3479 1.80279 16.723 -25.4947 2.67613
lowerback 25.642 -4.00432 -8.25342
upperback -0.167403 -7.44294 2.00612
thorax -13.178 -2.74567 9.68697
lowerneck -3.61744 11.6237 20.4116
upperneck 5.98117 15.7448 -17.318
head 5.43217 7.68084 -7.48178
rclavicle 4.96962e-014 -6.36111e-015
rhumerus -1.37659 18.5006 -73.9647
rradius 131.817
rwrist -44.5676
rhand -2.48113 -11.1758
rfingers 7.12502
rthumb 23.2119 -39.797
lclavicle 4.96962e-014 -6.36111e-015
lhumerus 36.6978 -24.941 65.4245
lradius 140.463
lwrist 12.2041
lhand -27.6021 7.84242
lfingers 7.12502
lthumb -1.00163 37.8198
rfemur -62.9076 -42.7668 -7.91676
rtibia 107.948
rfoot -40.1481 14.1318
rtoes -37.772
lfemur -91.6872 24.7635 -25.0453
ltibia 107.296
lfoot -27.8423 10.6047
ltoes -5.62047
